<mxfile host="Electron" modified="2024-05-09T03:40:53.262Z" agent="Mozilla/5.0 (Windows NT 10.0; Win64; x64) AppleWebKit/537.36 (KHTML, like Gecko) draw.io/23.1.5 Chrome/120.0.6099.109 Electron/28.1.0 Safari/537.36" etag="1uakYU_tK8o5zpMS700r" version="23.1.5" type="device">
  <diagram name="Page-1" id="2a216829-ef6e-dabb-86c1-c78162f3ba2b">
    <mxGraphModel dx="1434" dy="844" grid="1" gridSize="10" guides="1" tooltips="1" connect="1" arrows="1" fold="1" page="1" pageScale="1" pageWidth="850" pageHeight="1100" background="#ffffff" math="0" shadow="0">
      <root>
        <mxCell id="0" />
        <mxCell id="1" parent="0" />
        <mxCell id="743RhM92W-YSGagM0oRr-1" value="" style="shape=mxgraph.bpmn.shape;html=1;verticalLabelPosition=bottom;labelBackgroundColor=#ffffff;verticalAlign=top;perimeter=ellipsePerimeter;outline=standard;symbol=general;" parent="1" vertex="1">
          <mxGeometry x="497" y="780" width="50" height="50" as="geometry" />
        </mxCell>
        <mxCell id="743RhM92W-YSGagM0oRr-2" value=".csv&lt;br&gt;.xlsx" style="shape=ext;rounded=1;html=1;whiteSpace=wrap;" parent="1" vertex="1">
          <mxGeometry x="612" y="765" width="120" height="80" as="geometry" />
        </mxCell>
        <mxCell id="743RhM92W-YSGagM0oRr-3" value="Numpy&lt;br&gt;Pandas" style="shape=ext;rounded=1;html=1;whiteSpace=wrap;" parent="1" vertex="1">
          <mxGeometry x="817" y="765" width="120" height="80" as="geometry" />
        </mxCell>
        <mxCell id="743RhM92W-YSGagM0oRr-6" style="edgeStyle=orthogonalEdgeStyle;rounded=0;html=1;jettySize=auto;orthogonalLoop=1;" parent="1" source="743RhM92W-YSGagM0oRr-1" target="743RhM92W-YSGagM0oRr-2" edge="1">
          <mxGeometry relative="1" as="geometry" />
        </mxCell>
        <mxCell id="743RhM92W-YSGagM0oRr-9" style="edgeStyle=orthogonalEdgeStyle;rounded=0;html=1;jettySize=auto;orthogonalLoop=1;" parent="1" source="743RhM92W-YSGagM0oRr-2" target="743RhM92W-YSGagM0oRr-3" edge="1">
          <mxGeometry relative="1" as="geometry" />
        </mxCell>
        <mxCell id="743RhM92W-YSGagM0oRr-10" value="PostgreSQL" style="shape=ext;rounded=1;html=1;whiteSpace=wrap;" parent="1" vertex="1">
          <mxGeometry x="1212" y="765" width="120" height="80" as="geometry" />
        </mxCell>
        <mxCell id="743RhM92W-YSGagM0oRr-11" value="Apache Spark" style="html=1;whiteSpace=wrap;rounded=1;" parent="1" vertex="1">
          <mxGeometry x="1212" y="940" width="120" height="80" as="geometry" />
        </mxCell>
        <mxCell id="743RhM92W-YSGagM0oRr-12" value="" style="shape=mxgraph.bpmn.timer_start;perimeter=ellipsePerimeter;html=1;labelPosition=right;labelBackgroundColor=#ffffff;align=left;" parent="743RhM92W-YSGagM0oRr-11" vertex="1">
          <mxGeometry x="1" width="30" height="30" relative="1" as="geometry">
            <mxPoint x="-15" y="10" as="offset" />
          </mxGeometry>
        </mxCell>
        <mxCell id="743RhM92W-YSGagM0oRr-13" style="edgeStyle=orthogonalEdgeStyle;rounded=0;html=1;jettySize=auto;orthogonalLoop=1;entryX=0;entryY=0.5;entryDx=0;entryDy=0;exitX=1;exitY=0.5;exitDx=0;exitDy=0;" parent="1" source="743RhM92W-YSGagM0oRr-3" target="743RhM92W-YSGagM0oRr-15" edge="1">
          <mxGeometry relative="1" as="geometry">
            <mxPoint x="777" y="815" as="sourcePoint" />
            <mxPoint x="827" y="815" as="targetPoint" />
          </mxGeometry>
        </mxCell>
        <mxCell id="743RhM92W-YSGagM0oRr-14" style="edgeStyle=orthogonalEdgeStyle;rounded=0;html=1;jettySize=auto;orthogonalLoop=1;exitX=0.5;exitY=1;exitDx=0;exitDy=0;" parent="1" source="743RhM92W-YSGagM0oRr-10" target="743RhM92W-YSGagM0oRr-21" edge="1">
          <mxGeometry relative="1" as="geometry">
            <mxPoint x="1132" y="815" as="sourcePoint" />
            <mxPoint x="1222" y="815" as="targetPoint" />
          </mxGeometry>
        </mxCell>
        <mxCell id="743RhM92W-YSGagM0oRr-15" value="REST API" style="shape=ext;rounded=1;html=1;whiteSpace=wrap;" parent="1" vertex="1">
          <mxGeometry x="1022" y="765" width="120" height="80" as="geometry" />
        </mxCell>
        <mxCell id="743RhM92W-YSGagM0oRr-16" style="edgeStyle=orthogonalEdgeStyle;rounded=0;html=1;jettySize=auto;orthogonalLoop=1;entryX=0;entryY=0.5;entryDx=0;entryDy=0;exitX=1;exitY=0.5;exitDx=0;exitDy=0;" parent="1" source="743RhM92W-YSGagM0oRr-15" target="743RhM92W-YSGagM0oRr-10" edge="1">
          <mxGeometry relative="1" as="geometry">
            <mxPoint x="1307" y="855" as="sourcePoint" />
            <mxPoint x="1307" y="910" as="targetPoint" />
          </mxGeometry>
        </mxCell>
        <mxCell id="743RhM92W-YSGagM0oRr-17" value="Data Sources" style="text;html=1;align=center;verticalAlign=middle;resizable=0;points=[];autosize=1;strokeColor=none;fillColor=none;" parent="1" vertex="1">
          <mxGeometry x="622" y="735" width="100" height="30" as="geometry" />
        </mxCell>
        <mxCell id="743RhM92W-YSGagM0oRr-18" value="Preprocessing" style="text;html=1;align=center;verticalAlign=middle;resizable=0;points=[];autosize=1;strokeColor=none;fillColor=none;" parent="1" vertex="1">
          <mxGeometry x="827" y="735" width="100" height="30" as="geometry" />
        </mxCell>
        <mxCell id="743RhM92W-YSGagM0oRr-19" value="Weather metrics" style="text;html=1;align=center;verticalAlign=middle;resizable=0;points=[];autosize=1;strokeColor=none;fillColor=none;" parent="1" vertex="1">
          <mxGeometry x="1027" y="735" width="110" height="30" as="geometry" />
        </mxCell>
        <mxCell id="743RhM92W-YSGagM0oRr-20" value="Data warehouse" style="text;html=1;align=center;verticalAlign=middle;resizable=0;points=[];autosize=1;strokeColor=none;fillColor=none;" parent="1" vertex="1">
          <mxGeometry x="1217" y="735" width="110" height="30" as="geometry" />
        </mxCell>
        <mxCell id="743RhM92W-YSGagM0oRr-21" value="Normalization &amp;amp; standardization" style="text;html=1;align=center;verticalAlign=middle;resizable=0;points=[];autosize=1;strokeColor=none;fillColor=none;" parent="1" vertex="1">
          <mxGeometry x="1177" y="910" width="190" height="30" as="geometry" />
        </mxCell>
        <mxCell id="743RhM92W-YSGagM0oRr-22" value="" style="shape=mxgraph.bpmn.shape;html=1;verticalLabelPosition=bottom;labelBackgroundColor=#ffffff;verticalAlign=top;perimeter=ellipsePerimeter;outline=standard;symbol=general;" parent="1" vertex="1">
          <mxGeometry x="1247" y="630" width="50" height="50" as="geometry" />
        </mxCell>
        <mxCell id="743RhM92W-YSGagM0oRr-23" style="edgeStyle=orthogonalEdgeStyle;rounded=0;html=1;jettySize=auto;orthogonalLoop=1;" parent="1" source="743RhM92W-YSGagM0oRr-22" target="743RhM92W-YSGagM0oRr-20" edge="1">
          <mxGeometry relative="1" as="geometry">
            <mxPoint x="1387" y="615" as="targetPoint" />
          </mxGeometry>
        </mxCell>
        <mxCell id="743RhM92W-YSGagM0oRr-24" value="Training pipeline" style="text;html=1;align=center;verticalAlign=middle;resizable=0;points=[];autosize=1;strokeColor=none;fillColor=none;fontSize=15;" parent="1" vertex="1">
          <mxGeometry x="1207" y="600" width="130" height="30" as="geometry" />
        </mxCell>
        <mxCell id="743RhM92W-YSGagM0oRr-25" value="Ingestion Pipeline" style="text;html=1;align=center;verticalAlign=middle;resizable=0;points=[];autosize=1;strokeColor=none;fillColor=none;fontSize=15;" parent="1" vertex="1">
          <mxGeometry x="452" y="750" width="140" height="30" as="geometry" />
        </mxCell>
        <mxCell id="743RhM92W-YSGagM0oRr-26" value="" style="shape=mxgraph.bpmn.shape;html=1;verticalLabelPosition=bottom;labelBackgroundColor=#ffffff;verticalAlign=top;perimeter=ellipsePerimeter;outline=standard;symbol=general;" parent="1" vertex="1">
          <mxGeometry x="492" y="935" width="50" height="50" as="geometry" />
        </mxCell>
        <mxCell id="743RhM92W-YSGagM0oRr-27" value="Raspberry pi 3" style="shape=ext;rounded=1;html=1;whiteSpace=wrap;" parent="1" vertex="1">
          <mxGeometry x="587" y="920" width="120" height="80" as="geometry" />
        </mxCell>
        <mxCell id="743RhM92W-YSGagM0oRr-28" value="AWS IoT Core&lt;span style=&quot;white-space: pre;&quot;&gt;&#x9;&lt;/span&gt;" style="shape=ext;rounded=1;html=1;whiteSpace=wrap;" parent="1" vertex="1">
          <mxGeometry x="812" y="920" width="120" height="80" as="geometry" />
        </mxCell>
        <mxCell id="743RhM92W-YSGagM0oRr-29" style="edgeStyle=orthogonalEdgeStyle;rounded=0;html=1;jettySize=auto;orthogonalLoop=1;" parent="1" source="743RhM92W-YSGagM0oRr-26" target="743RhM92W-YSGagM0oRr-27" edge="1">
          <mxGeometry relative="1" as="geometry" />
        </mxCell>
        <mxCell id="743RhM92W-YSGagM0oRr-30" style="edgeStyle=orthogonalEdgeStyle;rounded=0;html=1;jettySize=auto;orthogonalLoop=1;" parent="1" source="743RhM92W-YSGagM0oRr-27" target="743RhM92W-YSGagM0oRr-28" edge="1">
          <mxGeometry relative="1" as="geometry" />
        </mxCell>
        <mxCell id="743RhM92W-YSGagM0oRr-31" style="edgeStyle=orthogonalEdgeStyle;rounded=0;html=1;jettySize=auto;orthogonalLoop=1;entryX=0;entryY=0.5;entryDx=0;entryDy=0;exitX=1;exitY=0.5;exitDx=0;exitDy=0;" parent="1" source="743RhM92W-YSGagM0oRr-28" target="743RhM92W-YSGagM0oRr-32" edge="1">
          <mxGeometry relative="1" as="geometry">
            <mxPoint x="772" y="970" as="sourcePoint" />
            <mxPoint x="822" y="970" as="targetPoint" />
          </mxGeometry>
        </mxCell>
        <mxCell id="743RhM92W-YSGagM0oRr-32" value="REST API" style="shape=ext;rounded=1;html=1;whiteSpace=wrap;" parent="1" vertex="1">
          <mxGeometry x="1022" y="920" width="120" height="80" as="geometry" />
        </mxCell>
        <mxCell id="743RhM92W-YSGagM0oRr-33" value="Edge Device" style="text;html=1;align=center;verticalAlign=middle;resizable=0;points=[];autosize=1;strokeColor=none;fillColor=none;" parent="1" vertex="1">
          <mxGeometry x="602" y="890" width="90" height="30" as="geometry" />
        </mxCell>
        <mxCell id="743RhM92W-YSGagM0oRr-34" value="MQTT Broker" style="text;html=1;align=center;verticalAlign=middle;resizable=0;points=[];autosize=1;strokeColor=none;fillColor=none;" parent="1" vertex="1">
          <mxGeometry x="822" y="890" width="100" height="30" as="geometry" />
        </mxCell>
        <mxCell id="743RhM92W-YSGagM0oRr-35" value="Weather metrics" style="text;html=1;align=center;verticalAlign=middle;resizable=0;points=[];autosize=1;strokeColor=none;fillColor=none;" parent="1" vertex="1">
          <mxGeometry x="1007" y="890" width="110" height="30" as="geometry" />
        </mxCell>
        <mxCell id="743RhM92W-YSGagM0oRr-36" value="Predicting Pipeline" style="text;html=1;align=center;verticalAlign=middle;resizable=0;points=[];autosize=1;strokeColor=none;fillColor=none;fontSize=15;" parent="1" vertex="1">
          <mxGeometry x="442" y="905" width="150" height="30" as="geometry" />
        </mxCell>
        <mxCell id="743RhM92W-YSGagM0oRr-37" value="Model" style="shape=ext;rounded=1;html=1;whiteSpace=wrap;" parent="1" vertex="1">
          <mxGeometry x="1212" y="1110" width="120" height="80" as="geometry" />
        </mxCell>
        <mxCell id="743RhM92W-YSGagM0oRr-38" value="AI / ML" style="text;html=1;align=center;verticalAlign=middle;resizable=0;points=[];autosize=1;strokeColor=none;fillColor=none;" parent="1" vertex="1">
          <mxGeometry x="1242" y="1080" width="60" height="30" as="geometry" />
        </mxCell>
        <mxCell id="743RhM92W-YSGagM0oRr-39" style="edgeStyle=orthogonalEdgeStyle;rounded=0;html=1;jettySize=auto;orthogonalLoop=1;exitX=0.5;exitY=1;exitDx=0;exitDy=0;" parent="1" source="743RhM92W-YSGagM0oRr-11" target="743RhM92W-YSGagM0oRr-38" edge="1">
          <mxGeometry relative="1" as="geometry">
            <mxPoint x="1282" y="855" as="sourcePoint" />
            <mxPoint x="1282" y="920" as="targetPoint" />
          </mxGeometry>
        </mxCell>
        <mxCell id="743RhM92W-YSGagM0oRr-40" style="edgeStyle=orthogonalEdgeStyle;rounded=0;html=1;jettySize=auto;orthogonalLoop=1;exitX=1;exitY=0.5;exitDx=0;exitDy=0;entryX=0;entryY=0.5;entryDx=0;entryDy=0;" parent="1" source="743RhM92W-YSGagM0oRr-32" target="743RhM92W-YSGagM0oRr-37" edge="1">
          <mxGeometry relative="1" as="geometry">
            <mxPoint x="1282" y="1030" as="sourcePoint" />
            <mxPoint x="1282" y="1090" as="targetPoint" />
          </mxGeometry>
        </mxCell>
        <mxCell id="743RhM92W-YSGagM0oRr-41" value="Apache Spark" style="html=1;whiteSpace=wrap;rounded=1;" parent="1" vertex="1">
          <mxGeometry x="1442" y="885" width="120" height="80" as="geometry" />
        </mxCell>
        <mxCell id="743RhM92W-YSGagM0oRr-42" value="" style="shape=mxgraph.bpmn.timer_start;perimeter=ellipsePerimeter;html=1;labelPosition=right;labelBackgroundColor=#ffffff;align=left;" parent="743RhM92W-YSGagM0oRr-41" vertex="1">
          <mxGeometry x="1" width="30" height="30" relative="1" as="geometry">
            <mxPoint x="-15" y="10" as="offset" />
          </mxGeometry>
        </mxCell>
        <mxCell id="743RhM92W-YSGagM0oRr-43" style="edgeStyle=orthogonalEdgeStyle;rounded=0;html=1;jettySize=auto;orthogonalLoop=1;exitX=1;exitY=0.5;exitDx=0;exitDy=0;" parent="1" source="743RhM92W-YSGagM0oRr-10" target="743RhM92W-YSGagM0oRr-44" edge="1">
          <mxGeometry relative="1" as="geometry">
            <mxPoint x="1137" y="815" as="sourcePoint" />
            <mxPoint x="1507" y="830" as="targetPoint" />
          </mxGeometry>
        </mxCell>
        <mxCell id="743RhM92W-YSGagM0oRr-44" value="Statistic" style="text;html=1;align=center;verticalAlign=middle;resizable=0;points=[];autosize=1;strokeColor=none;fillColor=none;" parent="1" vertex="1">
          <mxGeometry x="1467" y="860" width="70" height="30" as="geometry" />
        </mxCell>
        <mxCell id="743RhM92W-YSGagM0oRr-50" value="Apache Superset" style="shape=ext;rounded=1;html=1;whiteSpace=wrap;" parent="1" vertex="1">
          <mxGeometry x="1442" y="1110" width="120" height="80" as="geometry" />
        </mxCell>
        <mxCell id="743RhM92W-YSGagM0oRr-51" style="edgeStyle=orthogonalEdgeStyle;rounded=0;html=1;jettySize=auto;orthogonalLoop=1;exitX=0.5;exitY=1;exitDx=0;exitDy=0;" parent="1" source="743RhM92W-YSGagM0oRr-41" target="743RhM92W-YSGagM0oRr-52" edge="1">
          <mxGeometry relative="1" as="geometry">
            <mxPoint x="1342" y="1160" as="sourcePoint" />
            <mxPoint x="1627" y="1050" as="targetPoint" />
          </mxGeometry>
        </mxCell>
        <mxCell id="743RhM92W-YSGagM0oRr-52" value="Visualization" style="text;html=1;align=center;verticalAlign=middle;resizable=0;points=[];autosize=1;strokeColor=none;fillColor=none;" parent="1" vertex="1">
          <mxGeometry x="1457" y="1080" width="90" height="30" as="geometry" />
        </mxCell>
        <mxCell id="743RhM92W-YSGagM0oRr-53" value="" style="shape=mxgraph.bpmn.shape;html=1;verticalLabelPosition=bottom;labelBackgroundColor=#ffffff;verticalAlign=top;perimeter=ellipsePerimeter;outline=standard;symbol=general;" parent="1" vertex="1">
          <mxGeometry x="1477" y="630" width="50" height="50" as="geometry" />
        </mxCell>
        <mxCell id="743RhM92W-YSGagM0oRr-54" style="edgeStyle=orthogonalEdgeStyle;rounded=0;html=1;jettySize=auto;orthogonalLoop=1;" parent="1" source="743RhM92W-YSGagM0oRr-53" edge="1">
          <mxGeometry relative="1" as="geometry">
            <mxPoint x="1502" y="780" as="targetPoint" />
          </mxGeometry>
        </mxCell>
        <mxCell id="743RhM92W-YSGagM0oRr-55" value="Analysis" style="text;html=1;align=center;verticalAlign=middle;resizable=0;points=[];autosize=1;strokeColor=none;fillColor=none;fontSize=15;" parent="1" vertex="1">
          <mxGeometry x="1462" y="600" width="80" height="30" as="geometry" />
        </mxCell>
        <mxCell id="EBZUcSEcBw33w5q__Ho_-1" style="edgeStyle=orthogonalEdgeStyle;rounded=0;html=1;jettySize=auto;orthogonalLoop=1;exitX=0.5;exitY=1;exitDx=0;exitDy=0;" edge="1" parent="1" source="743RhM92W-YSGagM0oRr-37" target="EBZUcSEcBw33w5q__Ho_-4">
          <mxGeometry relative="1" as="geometry">
            <mxPoint x="1160" y="1250" as="sourcePoint" />
            <mxPoint x="1720" y="980" as="targetPoint" />
            <Array as="points">
              <mxPoint x="1272" y="1270" />
              <mxPoint x="1705" y="1270" />
            </Array>
          </mxGeometry>
        </mxCell>
        <mxCell id="EBZUcSEcBw33w5q__Ho_-3" style="edgeStyle=orthogonalEdgeStyle;rounded=0;html=1;jettySize=auto;orthogonalLoop=1;entryX=0.48;entryY=0.033;entryDx=0;entryDy=0;entryPerimeter=0;" edge="1" parent="1" source="EBZUcSEcBw33w5q__Ho_-4" target="743RhM92W-YSGagM0oRr-24">
          <mxGeometry relative="1" as="geometry">
            <mxPoint x="1705" y="840" as="sourcePoint" />
            <mxPoint x="1715" y="900" as="targetPoint" />
            <Array as="points">
              <mxPoint x="1705" y="560" />
              <mxPoint x="1269" y="560" />
            </Array>
          </mxGeometry>
        </mxCell>
        <mxCell id="EBZUcSEcBw33w5q__Ho_-4" value="retrain" style="text;html=1;align=center;verticalAlign=middle;resizable=0;points=[];autosize=1;strokeColor=none;fillColor=none;fontSize=15;" vertex="1" parent="1">
          <mxGeometry x="1670" y="870" width="70" height="30" as="geometry" />
        </mxCell>
      </root>
    </mxGraphModel>
  </diagram>
</mxfile>
